<svg width="447" height="41" viewBox="0 0 447 41" fill="none" xmlns="http://www.w3.org/2000/svg">
<g clip-path="url(#clip0_222_7593)">
<path d="M278.893 20.4939C278.893 14.1863 278.893 7.87252 278.893 1.56483C278.893 1.31712 278.736 0.996898 278.948 0.845852C279.427 0.495425 280.094 -0.0060488 280.682 -6.95036e-06C281.252 -6.95036e-06 282.186 0.51355 282.301 0.876061C282.556 1.64338 282.392 2.45903 282.392 3.25655C282.405 15.2617 282.417 27.2669 282.429 39.2781C282.429 39.5862 282.611 39.9668 282.356 40.1783C281.925 40.5348 281.216 41.006 280.628 41.006C280.058 41.006 279.397 40.5046 278.966 40.1481C278.736 39.9608 278.911 39.6104 278.911 39.3385C278.911 33.061 278.911 26.7835 278.911 20.5C278.905 20.494 278.899 20.4939 278.893 20.4939Z" fill="#414141"/>
<path d="M432.093 20.5181C432.093 26.125 432.093 31.7318 432.093 37.3386C432.093 37.6166 432.13 37.8945 432.057 38.1664C431.905 38.7101 431.323 39.1633 430.347 39.0001C429.68 38.8914 429.134 38.4443 428.655 38.0999C428.467 37.967 428.606 37.683 428.606 37.4716C428.6 26.1673 428.594 14.863 428.6 3.55261C428.6 3.25052 428.509 2.8578 428.788 2.66446C429.249 2.34424 429.971 1.97569 430.596 1.96964C431.069 1.9636 431.681 2.45299 432.003 2.79134C432.227 3.03301 432.081 3.38948 432.081 3.69761C432.081 9.30445 432.081 14.9113 432.081 20.5181C432.087 20.5181 432.093 20.5181 432.093 20.5181Z" fill="#414141"/>
<path d="M388.763 20.4396C388.763 15.0805 388.763 9.71529 388.763 4.35616C388.763 4.04803 388.587 3.67344 388.83 3.44989C389.212 3.09946 389.855 2.64028 390.431 2.62215C390.989 2.60403 391.747 3.02092 392.141 3.35322C392.426 3.59489 392.293 4.00574 392.293 4.33804C392.299 15.0925 392.299 25.847 392.299 36.5955C392.299 37.8643 391.741 38.4322 390.522 38.4443C389.333 38.4564 388.775 37.8764 388.775 36.6076C388.775 31.2182 388.775 25.8229 388.775 20.4335C388.775 20.4396 388.769 20.4396 388.763 20.4396Z" fill="#414141"/>
<path d="M287.341 20.6208C287.341 25.8893 287.341 31.1518 287.341 36.4203C287.341 36.7284 287.335 37.0305 287.329 37.3386C287.317 37.9428 286.631 38.3355 285.728 38.2389C285.061 38.1664 284.448 37.7314 283.963 37.393C283.751 37.242 283.896 36.9217 283.896 36.674C283.896 26.0222 283.896 15.3644 283.896 4.71264C283.896 4.43471 283.884 4.16283 283.915 3.88491C283.987 3.2203 284.509 2.73091 285.77 2.76112C286.959 2.78529 287.371 3.27468 287.359 3.90907C287.347 5.10536 287.347 6.2956 287.347 7.49189C287.341 11.8601 287.341 16.2405 287.341 20.6208Z" fill="#414141"/>
<path d="M54.7319 20.5544C54.7319 15.2798 54.7319 10.0113 54.7319 4.7368C54.7319 4.39846 54.55 3.99366 54.8168 3.7399C55.205 3.37739 55.8842 2.93633 56.521 2.888C57.0061 2.85175 57.7278 3.32905 58.1462 3.66135C58.3828 3.84865 58.2615 4.19304 58.2615 4.47096C58.2736 15.2013 58.2857 25.9256 58.2857 36.6559C58.2857 37.822 57.3882 38.3778 56.0055 38.1422C54.8168 37.9368 54.7441 37.4172 54.7441 36.8311C54.7623 31.4055 54.7562 25.98 54.7562 20.5544C54.7501 20.5544 54.738 20.5544 54.7319 20.5544Z" fill="#E6E6E6"/>
<path d="M288.851 20.5121C288.851 14.6273 288.851 8.74255 288.851 2.86383C288.851 2.71279 288.827 2.5557 288.857 2.40465C288.966 1.81859 289.488 1.29295 290.531 1.42587C291.204 1.5165 292.089 2.0361 292.186 2.41674C292.429 3.37739 292.29 4.36825 292.29 5.35308C292.29 16.1076 292.283 26.8621 292.277 37.6226C292.277 38.0214 292.447 38.4866 292.15 38.8008C291.823 39.1451 291.034 39.562 290.47 39.5499C289.93 39.5379 289.379 39.0364 288.93 38.7041C288.772 38.5893 288.881 38.3476 288.881 38.1664C288.881 32.2816 288.881 26.3968 288.881 20.5181C288.875 20.5121 288.863 20.5121 288.851 20.5121Z" fill="#414141"/>
<path d="M277.371 20.5302C277.371 25.6416 277.371 30.753 277.371 35.8705C277.371 36.2088 277.547 36.6076 277.286 36.8613C276.928 37.2118 276.183 37.6951 275.691 37.6649C275.048 37.6287 274.412 37.1755 273.92 36.8311C273.708 36.6801 273.866 36.3599 273.866 36.1121C273.86 25.7927 273.854 15.4792 273.854 5.15974C273.854 4.82744 273.739 4.41659 274.018 4.17492C274.424 3.81845 275.188 3.3351 275.728 3.35927C276.316 3.38948 276.892 3.91512 277.323 4.28367C277.523 4.45285 277.377 4.76098 277.377 5.00265C277.377 10.1745 277.377 15.3523 277.377 20.5242C277.377 20.5302 277.377 20.5302 277.371 20.5302Z" fill="#414141"/>
<path d="M64.7082 20.4637C64.7082 14.9475 64.7021 9.43737 64.7264 3.92116C64.7264 3.57073 64.8052 3.15385 65.157 2.90009C65.4905 2.65841 66.2668 2.44695 66.764 2.49528C67.2613 2.54362 67.7829 2.89405 68.0497 3.18405C68.2802 3.43177 68.1953 3.7822 68.1953 4.08429C68.2013 15.02 68.2013 25.9558 68.2013 36.8915C68.2013 38.0274 67.6191 38.5833 66.4851 38.5712C65.351 38.5591 64.7446 37.973 64.7446 36.9097C64.7446 31.4237 64.7446 25.9437 64.7446 20.4577C64.7264 20.4637 64.7203 20.4637 64.7082 20.4637Z" fill="#E6E6E6"/>
<path d="M263.932 20.4879C263.932 15.153 263.932 9.82405 263.932 4.4891C263.932 3.24448 264.411 2.743 265.636 2.71279C266.879 2.68258 267.431 3.24448 267.431 4.52535C267.437 15.1288 267.443 25.7322 267.449 36.3357C267.449 36.674 267.449 37.0124 267.389 37.3447C267.279 37.9549 266.6 38.3899 265.593 38.251C264.963 38.1603 264.465 37.6649 264.023 37.3024C263.847 37.1574 263.974 36.8855 263.974 36.668C263.974 31.2726 263.974 25.8833 263.974 20.4879C263.962 20.4879 263.95 20.4879 263.932 20.4879Z" fill="#414141"/>
<path d="M297.347 20.5181C297.347 25.3274 297.359 30.1307 297.323 34.94C297.323 35.3086 297.165 35.7557 296.771 36.0155C296.438 36.233 295.583 36.3598 295.091 36.2813C294.6 36.1967 294.163 35.8342 293.909 35.5382C293.715 35.3146 293.83 35.0004 293.83 34.7225C293.824 25.2308 293.824 15.739 293.83 6.24726C293.83 5.99955 293.684 5.68537 293.897 5.52828C294.37 5.1839 295.043 4.68847 295.607 4.70055C296.201 4.71263 296.838 5.21411 297.305 5.56453C297.511 5.72162 297.353 6.04184 297.359 6.28351C297.359 11.0264 297.359 15.7753 297.359 20.5181C297.347 20.5181 297.347 20.5181 297.347 20.5181Z" fill="#414141"/>
<path d="M433.652 20.4275C433.652 15.6484 433.646 10.8693 433.658 6.08414C433.658 5.78204 433.567 5.38932 433.846 5.20203C434.247 4.93014 434.974 4.64013 435.526 4.6643C436.042 4.68243 436.612 5.06306 436.957 5.35911C437.188 5.5585 437.103 5.8908 437.103 6.16872C437.121 15.6363 437.127 25.1039 437.139 34.5715C437.139 34.8192 437.285 35.1152 437.097 35.2965C436.678 35.7013 436.151 36.3115 435.55 36.3599C434.41 36.4505 433.616 36.0336 433.628 35.23C433.677 31.9493 433.652 28.6746 433.652 25.3939C433.658 23.7384 433.658 22.083 433.652 20.4275Z" fill="#414141"/>
<path d="M99.585 20.5302C99.585 15.5336 99.585 10.543 99.585 5.54642C99.585 5.20807 99.4213 4.81535 99.676 4.54951C100.016 4.19908 100.737 3.69761 101.21 3.72782C101.859 3.76407 102.526 4.19908 102.999 4.54347C103.242 4.71868 103.102 5.07515 103.102 5.35308C103.115 15.4007 103.133 25.4483 103.102 35.4959C103.102 36.0034 102.799 36.5532 102.387 37.0063C102.199 37.2118 101.277 37.387 100.877 37.2963C100.379 37.1876 100.01 36.813 99.7124 36.5049C99.5486 36.3357 99.6396 36.088 99.6396 35.8705C99.6396 30.753 99.6396 25.6356 99.6396 20.5242C99.6214 20.5302 99.6032 20.5302 99.585 20.5302Z" fill="#414141"/>
<path d="M63.198 20.5423C63.198 24.9831 63.198 29.4299 63.198 33.8706C63.198 34.209 63.3678 34.6017 63.1252 34.8675C62.8038 35.224 62.1125 35.7315 61.6455 35.7134C61.0027 35.6892 60.3174 35.2663 59.8322 34.934C59.5836 34.7588 59.7049 34.4023 59.7049 34.1304C59.7049 25.2429 59.7049 16.3553 59.7109 7.46772C59.7109 7.12938 59.7352 6.79104 59.7534 6.45873C59.7837 5.76392 60.2204 5.20807 61.6031 5.24432C62.8887 5.27453 63.2223 5.8183 63.2162 6.47686C63.1919 8.16254 63.2041 9.84821 63.2041 11.5339C63.198 14.5367 63.198 17.5395 63.198 20.5423Z" fill="#E6E6E6"/>
<path d="M69.6749 20.4819C69.6749 16.1378 69.6749 11.7877 69.6749 7.44356C69.6749 7.07501 69.4869 6.63395 69.784 6.36207C70.1782 6.0056 70.9302 5.59475 71.5791 5.56454C72.0643 5.54642 72.7071 6.05393 73.1255 6.39228C73.3317 6.56145 73.1983 6.86958 73.1983 7.11126C73.1983 16.0774 73.1983 25.0435 73.1923 34.0156C73.1923 35.1998 72.1431 35.7678 70.718 35.3811C69.6991 35.1032 69.6688 34.6077 69.6688 34.064C69.6809 29.5447 69.6749 25.0133 69.6749 20.4819Z" fill="#E6E6E6"/>
<path d="M53.2404 20.5242C53.2404 24.8743 53.2404 29.2184 53.2404 33.5685C53.2404 33.8766 53.4102 34.2512 53.1616 34.4687C52.7735 34.8131 52.0579 35.3086 51.5606 35.2784C50.9238 35.2421 50.2992 34.7829 49.8201 34.4385C49.6078 34.2875 49.7594 33.9673 49.7534 33.7196C49.7412 25.1099 49.7291 16.5063 49.7352 7.90273C49.7352 7.38313 49.6867 6.83332 49.9778 6.36206C50.1597 6.07205 50.9663 5.7035 51.4454 5.72162C52.0397 5.74579 52.6582 6.10226 53.1131 6.39227C53.3375 6.53727 53.2404 6.86353 53.2404 7.1052C53.2404 11.5822 53.2404 16.0532 53.2404 20.5242Z" fill="#E6E6E6"/>
<path d="M423.64 20.5121C423.64 16.1922 423.64 11.8783 423.64 7.55836C423.64 7.25022 423.47 6.87563 423.725 6.65812C424.143 6.29561 424.835 5.80622 425.429 5.80018C425.981 5.79414 426.63 6.31373 427.085 6.66416C427.297 6.82729 427.157 7.14147 427.157 7.38314C427.157 16.0472 427.157 24.7172 427.151 33.3812C427.151 33.7498 427.315 34.1788 427.036 34.4688C426.702 34.8131 425.896 35.2905 425.441 35.2482C424.792 35.1817 424.034 34.7467 423.761 34.3721C423.476 33.9794 423.713 33.4719 423.719 33.0127C423.719 28.8498 423.719 24.681 423.719 20.5181C423.682 20.5121 423.658 20.5121 423.64 20.5121Z" fill="#414141"/>
<path d="M207.648 20.4819C207.648 25.1341 207.648 29.7863 207.648 34.4385C207.648 34.8071 207.83 35.2361 207.563 35.5261C207.223 35.8946 206.58 36.3417 205.944 36.4203C204.925 36.5532 204.246 36.1303 204.221 35.5019C204.191 34.7044 204.197 33.9129 204.191 33.1154C204.173 24.1432 204.155 15.1771 204.142 6.20498C204.142 5.9331 203.991 5.57058 204.233 5.40141C204.713 5.06307 205.434 4.60389 206.022 4.61597C206.574 4.62806 207.393 5.14765 207.545 5.52225C207.799 6.13248 207.611 6.79708 207.611 7.44356C207.611 11.7876 207.611 16.1378 207.611 20.4819C207.624 20.4819 207.636 20.4819 207.648 20.4819Z" fill="#414141"/>
<path d="M144.401 20.5362C144.401 16.0955 144.401 11.6608 144.401 7.22001C144.401 6.57957 144.486 5.94518 145.948 5.86059C147.009 5.80017 147.755 6.05997 147.834 6.70645C147.913 7.34689 147.913 7.99336 147.913 8.6338C147.913 16.8084 147.907 24.983 147.9 33.1516C147.9 33.5202 147.907 33.8887 147.852 34.2512C147.755 34.8736 147.118 35.1877 146.02 35.1515C145.002 35.1213 144.438 34.8071 144.413 34.215C144.389 33.635 144.395 33.0489 144.395 32.4689C144.395 28.4934 144.395 24.5118 144.401 20.5362Z" fill="#414141"/>
<path d="M108.063 20.5242C108.063 24.6568 108.063 28.7894 108.063 32.9281C108.063 33.1758 108.221 33.4839 108.021 33.6471C107.548 34.0398 106.899 34.36 106.323 34.7044C105.746 34.3902 105.079 34.1062 104.637 33.7377C104.406 33.5443 104.552 33.2 104.552 32.9281C104.546 24.693 104.54 16.452 104.54 8.21691C104.54 6.89978 105.14 6.28352 106.389 6.2956C107.499 6.30768 108.051 6.9602 108.051 8.21087C108.045 12.3133 108.051 16.4157 108.051 20.5181C108.057 20.5242 108.063 20.5242 108.063 20.5242Z" fill="#414141"/>
<path d="M39.7894 20.5121C39.7894 16.0109 39.7894 11.5097 39.7894 7.01458C39.7894 6.70645 39.6439 6.33185 39.8986 6.11435C40.3171 5.75184 40.9599 5.30474 41.5967 5.25036C42.0697 5.21411 42.8277 5.7035 43.1855 6.04789C43.4463 6.30164 43.2886 6.70645 43.2947 7.03875C43.3008 15.9746 43.2947 24.9166 43.2947 33.8525C43.2947 34.1304 43.4524 34.4627 43.2401 34.6681C42.8035 35.0911 42.2334 35.7255 41.5906 35.7798C40.5111 35.8705 39.8076 35.375 39.8258 34.656C39.8683 33.1275 39.8501 31.5928 39.8501 30.0642C39.8501 26.8802 39.8501 23.6961 39.8501 20.5121C39.838 20.5121 39.8137 20.5121 39.7894 20.5121Z" fill="#E6E6E6"/>
<path d="M324.073 20.5242C324.073 16.1136 324.073 11.7031 324.073 7.29855C324.073 6.99042 323.892 6.61582 324.14 6.39832C324.577 6.01164 325.28 5.72767 325.875 5.39537C326.42 5.72163 327.118 6.0056 327.464 6.39228C327.724 6.68833 327.548 7.11126 327.548 7.47981C327.561 16.2707 327.585 25.0556 327.554 33.8464C327.554 34.3298 327.263 34.8494 326.851 35.2663C326.657 35.4657 325.759 35.6167 325.359 35.5261C324.856 35.4113 324.468 35.0548 324.171 34.7588C324.007 34.5956 324.116 34.3419 324.116 34.1244C324.116 29.593 324.116 25.0616 324.116 20.5302C324.104 20.5242 324.092 20.5242 324.073 20.5242Z" fill="#414141"/>
<path d="M272.404 20.5604C272.404 24.4212 272.404 28.2819 272.404 32.1426C272.404 32.5112 272.416 32.8798 272.38 33.2483C272.319 33.8465 271.761 34.354 270.73 34.2392C270.069 34.1606 269.512 33.6471 269.026 33.2725C268.844 33.1335 268.978 32.8556 268.978 32.6441C268.966 24.5843 268.954 16.5305 268.941 8.47068C268.941 7.22001 269.463 6.72458 270.718 6.74875C271.937 6.77292 272.416 7.28647 272.416 8.52505C272.404 12.5368 272.41 16.5486 272.404 20.5604Z" fill="#414141"/>
<path d="M209.188 20.4275C209.188 16.3855 209.182 12.3375 209.206 8.29546C209.206 7.93899 209.237 7.51002 209.582 7.25626C209.91 7.01459 210.71 6.8152 211.214 6.86354C211.723 6.91187 212.275 7.25626 212.53 7.55231C212.766 7.83024 212.669 8.21087 212.669 8.54922C212.675 16.4822 212.675 24.4212 212.675 32.3541C212.675 32.632 212.839 32.9704 212.614 33.1698C212.172 33.5564 211.571 34.1002 210.929 34.1546C209.958 34.2271 209.164 33.8344 209.182 33.1214C209.224 31.623 209.188 30.1186 209.188 28.6202C209.188 25.8833 209.188 23.1524 209.188 20.4275Z" fill="#414141"/>
<path d="M397.266 20.5604C397.266 24.9105 397.266 29.2667 397.26 33.6169C397.26 33.8585 397.357 34.1667 397.144 34.3358C396.774 34.6319 396.132 35.0669 395.719 35.0306C395.07 34.9702 394.391 34.6258 393.961 34.2996C393.694 34.0942 393.827 33.7075 393.827 33.4054C393.815 24.8864 393.803 16.3674 393.803 7.84836C393.803 7.47981 393.651 7.05084 393.93 6.76687C394.276 6.42249 395.01 5.98143 395.568 5.98143C396.119 5.98747 396.902 6.44061 397.132 6.79708C397.417 7.23209 397.254 7.76378 397.254 8.25317C397.26 12.3435 397.26 16.452 397.266 20.5604C397.26 20.5604 397.26 20.5604 397.266 20.5604Z" fill="#414141"/>
<path d="M177.786 20.6208C177.786 24.4514 177.786 28.2759 177.786 32.1064C177.786 32.3783 177.926 32.7347 177.683 32.916C177.277 33.2241 176.574 33.635 176.07 33.6048C175.464 33.5685 174.888 33.1396 174.396 32.8375C174.233 32.7347 174.336 32.481 174.336 32.2997C174.324 24.4574 174.311 16.6151 174.305 8.77881C174.305 7.84837 174.966 7.31668 176.125 7.3771C177.623 7.4496 177.805 8.07796 177.805 8.77881C177.786 12.7181 177.792 16.6695 177.786 20.6208Z" fill="#414141"/>
<path d="M194.19 20.5242C194.19 16.4459 194.19 12.3737 194.19 8.29546C194.19 6.98438 194.676 6.48291 195.979 6.46478C197.241 6.44666 197.696 6.93001 197.696 8.30755C197.702 16.4882 197.708 24.6749 197.708 32.8556C197.708 32.9764 197.69 33.1033 197.708 33.2241C197.811 33.9915 197.259 34.5533 195.87 34.5292C194.56 34.505 194.215 33.9069 194.215 33.2121C194.233 28.9828 194.227 24.7535 194.227 20.5242C194.215 20.5242 194.203 20.5242 194.19 20.5242Z" fill="#414141"/>
<path d="M418.703 20.4819C418.703 16.3734 418.703 12.271 418.703 8.16254C418.703 7.88461 418.552 7.54023 418.782 7.35293C419.219 6.99646 419.898 6.48895 420.45 6.49499C421.02 6.50707 421.632 7.02667 422.075 7.38918C422.281 7.55231 422.124 7.86649 422.124 8.10816C422.118 16.3795 422.112 24.6568 422.105 32.9281C422.105 33.1758 422.263 33.49 422.057 33.6471C421.596 33.9975 420.953 34.505 420.371 34.511C419.849 34.5171 419.061 33.9915 418.831 33.6108C418.558 33.1758 418.764 32.6441 418.764 32.1547C418.764 28.2638 418.764 24.3728 418.764 20.4819C418.74 20.4819 418.721 20.4819 418.703 20.4819Z" fill="#414141"/>
<path d="M202.693 20.6208C202.693 24.2641 202.693 27.9073 202.693 31.5566C202.693 31.8043 202.851 32.1124 202.65 32.2756C202.196 32.6441 201.559 32.9402 200.995 33.2664C200.394 32.9281 199.758 32.6139 199.224 32.2514C199.066 32.1426 199.188 31.8949 199.188 31.7137C199.182 24.3305 199.182 16.9534 199.182 9.57029C199.182 8.36797 199.733 7.80607 200.898 7.77586C202.105 7.74566 202.699 8.35588 202.693 9.6005C202.693 13.2679 202.693 16.9474 202.693 20.6208Z" fill="#414141"/>
<path d="M332.527 20.6208C332.527 24.2339 332.527 27.8469 332.521 31.4599C332.521 31.768 332.691 32.1487 332.436 32.3602C332.03 32.6985 331.375 33.0912 330.756 33.1335C330.271 33.1637 329.586 32.7408 329.186 32.4327C328.943 32.2454 329.046 31.901 329.046 31.6291C329.028 24.2822 329.016 16.9353 329.004 9.58841C329.004 9.28028 328.858 8.91173 329.107 8.68818C329.489 8.33775 330.138 7.87857 330.702 7.86649C331.266 7.8544 331.981 8.28942 332.4 8.62172C332.661 8.83318 332.521 9.21382 332.521 9.51591C332.533 13.2135 332.527 16.9172 332.527 20.6208Z" fill="#414141"/>
<path d="M348.901 20.4819C348.901 16.5607 348.901 12.6456 348.901 8.72443C348.901 8.44651 348.901 8.17463 348.908 7.8967C348.914 7.18376 349.453 6.66416 350.775 6.67625C352.049 6.68833 352.431 7.24418 352.425 7.8967C352.425 8.6036 352.407 9.30445 352.407 10.0113C352.413 17.4791 352.425 24.9528 352.431 32.4206C352.431 32.7589 352.467 33.0973 352.395 33.4296C352.273 33.9794 351.691 34.4265 350.709 34.2754C350.035 34.1727 349.429 33.7619 348.98 33.4114C348.75 33.2302 348.92 32.8798 348.92 32.6018C348.92 28.5598 348.92 24.5178 348.92 20.4819C348.914 20.4819 348.908 20.4819 348.901 20.4819Z" fill="#414141"/>
<path d="M128.015 20.5242C128.015 24.3245 128.051 28.1248 127.966 31.9251C127.96 32.3299 127.39 32.8314 126.808 33.0791C126.487 33.2181 125.498 32.9945 124.995 32.7891C124.661 32.6502 124.522 32.2574 124.522 31.9795C124.492 24.3789 124.492 16.7782 124.467 9.18361C124.467 8.44046 124.904 7.84232 126.293 7.83627C127.766 7.83627 128.009 8.52504 128.009 9.21986C128.009 12.99 128.009 16.7601 128.009 20.5242C128.003 20.5242 128.009 20.5242 128.015 20.5242Z" fill="#414141"/>
<path d="M169.344 20.4275C169.344 16.5728 169.344 12.7121 169.344 8.85735C169.344 8.51901 169.181 8.13233 169.417 7.86045C169.757 7.47377 170.387 6.91188 170.909 6.90583C171.503 6.89979 172.231 7.3771 172.68 7.73357C172.941 7.93899 172.783 8.32567 172.783 8.6338C172.789 16.6513 172.789 24.6749 172.789 32.6925C172.789 32.8133 172.795 32.9402 172.789 33.061C172.746 33.7196 172.073 34.1425 171 34.1365C169.884 34.1304 169.362 33.6773 169.375 33.0127C169.405 30.5355 169.387 28.0523 169.387 25.5752C169.387 23.8593 169.387 22.1494 169.387 20.4335C169.375 20.4275 169.362 20.4275 169.344 20.4275Z" fill="#414141"/>
<path d="M98.099 20.6148C98.099 24.1372 98.099 27.6656 98.099 31.188C98.099 31.466 98.2567 31.8164 98.0202 31.9976C97.5471 32.3541 96.8982 32.7831 96.2372 32.8435C95.7945 32.8798 95.1153 32.3541 94.7029 32.0158C94.4967 31.8466 94.6301 31.5385 94.6241 31.2968C94.5998 24.1855 94.5755 17.0803 94.5634 9.96905C94.5634 9.63071 94.4118 9.23195 94.6786 8.97819C95.0364 8.6338 95.7399 8.18671 96.2857 8.18671C96.8679 8.19275 97.6563 8.60964 97.9534 8.96006C98.2506 9.31049 98.0808 9.79988 98.0808 10.2289C98.0869 13.6908 98.0869 17.1528 98.0869 20.6148C98.0869 20.6148 98.0929 20.6148 98.099 20.6148Z" fill="#414141"/>
<path d="M258.923 20.5423C258.923 16.9595 258.917 13.3766 258.929 9.79383C258.929 9.46153 258.838 9.05672 259.123 8.81505C259.469 8.52504 260.16 8.23503 260.73 8.21691C261.203 8.19878 261.894 8.519 262.161 8.79692C262.452 9.09298 262.422 9.50382 262.422 9.86633C262.434 16.9715 262.434 24.0707 262.44 31.1759C262.44 31.327 262.446 31.4841 262.434 31.6351C262.38 32.2876 261.9 32.8556 260.688 32.8374C259.45 32.8193 258.917 32.2937 258.923 31.5687C258.947 27.8952 258.935 24.2218 258.935 20.5483C258.941 20.5423 258.929 20.5423 258.923 20.5423Z" fill="#414141"/>
<path d="M402.184 20.6148C402.184 24.258 402.178 27.8952 402.196 31.5385C402.196 32.1185 401.941 32.6562 400.892 32.7227C400.304 32.7589 399.57 32.4568 399.036 32.2152C398.794 32.1004 398.818 31.762 398.818 31.5203C398.806 24.1795 398.806 16.8326 398.782 9.49175C398.782 8.77277 399.249 8.21088 400.516 8.21088C401.82 8.21088 402.208 8.81506 402.202 9.50987C402.184 13.2135 402.196 16.9111 402.196 20.6148C402.19 20.6148 402.19 20.6148 402.184 20.6148Z" fill="#414141"/>
<path d="M372.358 20.5242C372.358 24.1372 372.358 27.7563 372.358 31.3693C372.358 31.9191 372.237 32.5112 371.091 32.5474C370.43 32.5716 369.672 32.2937 369.078 32.052C368.829 31.9493 368.829 31.5989 368.829 31.3632C368.811 24.1311 368.811 16.9051 368.805 9.673C368.805 8.97819 369.229 8.39817 370.539 8.36796C371.976 8.33775 372.377 8.92985 372.371 9.673C372.352 13.2921 372.365 16.9111 372.358 20.5242Z" fill="#414141"/>
<path d="M48.2793 20.5363C48.2793 24.0284 48.2611 27.5146 48.2914 31.0068C48.2975 31.7499 47.9336 32.3541 46.5448 32.3662C45.053 32.3843 44.8347 31.6895 44.8347 30.9947C44.8225 24.0466 44.8043 17.0924 44.7983 10.1443C44.7983 9.9328 44.7134 9.64884 44.9074 9.51591C45.4108 9.18361 46.09 8.6761 46.6358 8.70026C47.218 8.72443 47.7881 9.25612 48.2429 9.61863C48.4248 9.76363 48.2853 10.0355 48.2853 10.247C48.2853 13.6787 48.2853 17.1045 48.2853 20.5363H48.2793Z" fill="#E6E6E6"/>
<path d="M137.876 20.5665C137.876 24.391 137.852 28.2215 137.894 32.046C137.9 32.7952 137.591 33.3691 136.154 33.3691C134.631 33.3691 134.462 32.6925 134.462 32.0037C134.456 24.3487 134.437 16.6936 134.431 9.03861C134.431 8.91777 134.413 8.79089 134.437 8.67006C134.553 8.05983 135.001 7.58252 136.22 7.61273C137.391 7.6369 137.888 8.04775 137.882 8.71235C137.858 11.1895 137.87 13.6727 137.87 16.1499C137.87 17.618 137.87 19.0862 137.87 20.5604C137.87 20.5665 137.87 20.5665 137.876 20.5665Z" fill="#414141"/>
<path d="M319.052 20.4275C319.052 17.2132 319.046 13.9929 319.052 10.7787C319.052 9.84821 319.737 9.2984 320.871 9.3709C322.351 9.46757 322.539 10.1261 322.539 10.8028C322.551 17.2978 322.582 23.7928 322.509 30.2878C322.503 30.7288 321.805 31.2545 321.169 31.5687C320.932 31.6835 319.828 31.3753 319.337 31.1276C319.034 30.9766 319.082 30.5597 319.082 30.2636C319.064 26.9829 319.07 23.7082 319.07 20.4275C319.064 20.4275 319.058 20.4275 319.052 20.4275Z" fill="#414141"/>
<path d="M132.964 20.5C132.964 23.6841 132.976 26.8621 132.945 30.0461C132.939 30.3965 132.891 30.8316 132.539 31.0732C132.157 31.333 131.32 31.5807 130.805 31.5143C130.301 31.4478 129.846 31.0189 129.561 30.6926C129.367 30.469 129.489 30.1549 129.489 29.8769C129.483 23.6357 129.483 17.3945 129.476 11.1472C129.476 10.9962 129.47 10.8391 129.483 10.688C129.549 10.0234 129.889 9.40112 131.29 9.44945C132.606 9.49174 132.964 10.0838 132.964 10.7666C132.964 14.0171 132.97 17.2555 132.964 20.5Z" fill="#414141"/>
<path d="M74.6478 20.4275C74.6478 17.0924 74.6418 13.7573 74.6539 10.4222C74.6539 10.0899 74.5387 9.67904 74.8237 9.43737C75.1815 9.12924 75.9456 8.73047 76.4368 8.76672C77.0312 8.80902 77.7589 9.21986 78.0075 9.57029C78.2926 9.96905 78.1288 10.4766 78.1288 10.9297C78.147 17.4791 78.1652 24.0284 78.1773 30.5778C78.1773 30.9101 78.2865 31.321 78.0015 31.5626C77.6437 31.8708 76.922 32.2212 76.3641 32.2151C75.8304 32.2091 75.1269 31.8345 74.8237 31.5203C74.5508 31.2303 74.6903 30.8014 74.6903 30.4388C74.6842 27.1037 74.6842 23.7686 74.6842 20.4335C74.6721 20.4275 74.66 20.4275 74.6478 20.4275Z" fill="#E6E6E6"/>
<path d="M34.78 20.5302C34.78 17.5576 34.78 14.5911 34.786 11.6185C34.786 11.2801 34.6344 10.8632 34.9255 10.6337C35.3319 10.3074 36.0657 9.95093 36.6903 9.9328C37.1754 9.91467 37.794 10.3618 38.1882 10.6699C38.4005 10.833 38.2792 11.1472 38.2792 11.3889C38.2852 17.4489 38.2852 23.5149 38.2792 29.5749C38.2792 29.8467 38.4005 30.1972 38.1579 30.3845C37.7698 30.6866 37.0966 31.1034 36.6115 31.0793C35.9929 31.043 35.344 30.6624 34.9073 30.3422C34.6708 30.167 34.8285 29.8105 34.8285 29.5326C34.8285 26.5298 34.8285 23.533 34.8285 20.5302C34.8103 20.5302 34.7982 20.5302 34.78 20.5302Z" fill="#E6E6E6"/>
<path d="M358.902 20.5242C358.902 17.2797 358.902 14.0292 358.908 10.7847C358.908 10.4161 358.75 9.98113 359.041 9.7032C359.399 9.36486 360.163 8.95401 360.733 8.9661C361.279 8.97818 361.855 9.45549 362.292 9.78779C362.474 9.92675 362.346 10.2047 362.346 10.4161C362.365 17.0924 362.377 23.7686 362.389 30.4509C362.389 30.6624 362.365 30.8799 362.358 31.0914C362.328 31.7257 361.625 32.1668 360.666 32.0581C360.005 31.9855 359.381 31.472 358.993 31.0732C358.738 30.8134 358.932 30.4147 358.932 30.0763C358.932 26.8923 358.932 23.7082 358.932 20.5181C358.92 20.5242 358.914 20.5242 358.902 20.5242Z" fill="#414141"/>
<path d="M118.057 20.5181C118.057 23.5149 118.057 26.5177 118.057 29.5144C118.057 29.7561 118.209 30.0824 117.991 30.2334C117.493 30.5778 116.851 31.0189 116.196 31.0612C115.716 31.0914 115.068 30.5718 114.619 30.2455C114.431 30.1065 114.558 29.8286 114.558 29.6171C114.546 23.6176 114.534 17.618 114.534 11.6185C114.534 11.2862 114.419 10.8814 114.692 10.6337C115.037 10.3195 115.777 9.91467 116.274 9.94488C116.887 9.98113 117.596 10.3739 117.942 10.7122C118.227 10.9962 118.057 11.4312 118.057 11.7937C118.057 14.6998 118.057 17.612 118.057 20.5181Z" fill="#414141"/>
<path d="M167.822 20.6208C167.822 23.3759 167.822 26.131 167.822 28.8861C167.822 29.164 167.98 29.5205 167.737 29.6957C167.258 30.034 166.585 30.457 165.936 30.4932C165.463 30.5174 164.82 30.0038 164.414 29.6655C164.208 29.4963 164.341 29.1882 164.341 28.9465C164.329 23.2793 164.323 17.618 164.311 11.9508C164.311 11.7997 164.299 11.6426 164.323 11.4916C164.402 10.8995 164.899 10.4947 166.003 10.4705C167.125 10.4464 167.677 10.8632 167.762 11.4372C167.847 12.0475 167.798 12.6637 167.798 13.2739C167.798 15.7209 167.798 18.1739 167.798 20.6208C167.804 20.6208 167.81 20.6208 167.822 20.6208Z" fill="#414141"/>
<path d="M357.428 20.5121C357.428 23.2974 357.434 26.0827 357.422 28.868C357.422 29.17 357.513 29.5567 357.234 29.7561C356.815 30.0522 356.106 30.3724 355.512 30.3784C355.02 30.3845 354.408 29.9917 354.056 29.6957C353.826 29.5024 353.929 29.164 353.929 28.8861C353.923 23.3457 353.917 17.8053 353.917 12.2649C353.917 11.0868 354.559 10.4464 355.736 10.5551C357.44 10.7122 357.44 11.4674 357.434 12.2468C357.41 15.0019 357.428 17.757 357.428 20.5121Z" fill="#414141"/>
<path d="M383.724 20.5242C383.724 17.8295 383.724 15.1288 383.724 12.4341C383.724 12.0958 383.542 11.6849 383.809 11.4433C384.221 11.0747 384.955 10.5914 385.561 10.5914C386.125 10.5853 386.895 11.0989 387.205 11.4735C387.496 11.8299 387.332 12.3133 387.332 12.7423C387.35 17.9805 387.362 23.2249 387.374 28.4632C387.374 28.8015 387.338 29.1338 387.29 29.4721C387.193 30.0824 386.61 30.4207 385.513 30.4268C384.348 30.4328 383.893 30.028 383.833 29.4359C383.784 28.9465 383.809 28.4571 383.809 27.9677C383.809 25.4845 383.809 23.0013 383.809 20.5181C383.778 20.5242 383.754 20.5242 383.724 20.5242Z" fill="#414141"/>
<path d="M338.986 20.5242C338.986 17.8899 338.986 15.2617 338.986 12.6275C338.986 12.3798 338.84 12.0777 339.04 11.9085C339.477 11.5399 340.029 11.0445 340.653 10.9841C341.145 10.9358 341.957 11.401 342.358 11.7393C342.643 11.981 342.515 12.3918 342.515 12.7241C342.521 17.8658 342.521 23.0074 342.515 28.149C342.515 28.3967 342.521 28.6384 342.515 28.8861C342.503 29.5688 341.872 30.0522 340.714 30.0582C339.513 30.0703 338.986 29.5869 338.992 28.8861C339.022 26.1008 339.004 23.3155 339.004 20.5302C339.004 20.5242 338.998 20.5242 338.986 20.5242Z" fill="#414141"/>
<path d="M184.269 20.4517C184.269 17.6664 184.227 14.8811 184.318 12.1018C184.33 11.697 184.845 11.1472 185.427 10.9357C186.416 10.5732 187.635 11.0928 187.726 11.8541C187.805 12.5247 187.72 13.2014 187.726 13.8721C187.75 18.6149 187.774 23.3578 187.799 28.1006C187.799 28.4088 187.811 28.7109 187.799 29.019C187.774 29.6957 187.241 30.167 185.991 30.1609C184.718 30.1549 184.281 29.6715 184.281 28.9888C184.299 26.1431 184.287 23.2974 184.287 20.4517C184.281 20.4517 184.275 20.4517 184.269 20.4517Z" fill="#414141"/>
<path d="M438.607 20.5242C438.607 17.8295 438.595 15.1348 438.613 12.4402C438.619 11.4795 439.274 10.9962 440.475 11.0566C441.906 11.1291 442.088 11.7393 442.088 12.3918C442.094 17.8114 442.112 23.2309 442.046 28.6504C442.039 29.0613 441.53 29.5749 440.96 29.8467C440.657 29.9917 439.577 29.8226 439.141 29.599C438.753 29.4057 438.637 28.9465 438.637 28.6082C438.595 25.9135 438.613 23.2188 438.607 20.5242C438.613 20.5242 438.613 20.5242 438.607 20.5242Z" fill="#414141"/>
<path d="M89.615 20.4214C89.615 17.8234 89.615 15.2194 89.615 12.6214C89.615 12.41 89.4816 12.126 89.6636 11.9931C90.1366 11.6487 90.7127 11.1714 91.3373 11.123C91.8286 11.0807 92.5624 11.552 92.999 11.8783C93.2416 12.0595 93.1082 12.41 93.1082 12.6818C93.1203 17.9141 93.1264 23.1403 93.1324 28.3725C93.1324 28.5538 93.2598 28.7954 93.1021 28.9102C92.5866 29.2848 92.0348 29.8467 91.3798 29.9071C90.361 29.9978 89.6454 29.5326 89.6454 28.8559C89.6514 27.146 89.6514 25.4301 89.6514 23.7203C89.6514 22.6207 89.6514 21.5211 89.6514 20.4154C89.6393 20.4214 89.6272 20.4214 89.615 20.4214Z" fill="#414141"/>
<path d="M408.709 20.5242C408.709 17.9262 408.709 15.3221 408.709 12.7241C408.709 12.5127 408.721 12.2952 408.715 12.0837C408.685 11.3949 409.024 10.827 410.431 10.8149C411.953 10.8028 412.245 11.4191 412.226 12.132C412.208 12.8027 412.184 13.4794 412.184 14.15C412.202 18.9231 412.226 23.6961 412.245 28.4692C412.251 29.7319 411.784 30.1972 410.516 30.2153C409.249 30.2334 408.733 29.744 408.733 28.5115C408.733 25.847 408.733 23.1886 408.733 20.5242C408.727 20.5242 408.715 20.5242 408.709 20.5242Z" fill="#414141"/>
<path d="M302.302 20.5785C302.302 23.1161 302.302 25.6597 302.302 28.1973C302.302 28.5054 302.447 28.868 302.211 29.0975C301.877 29.4299 301.247 29.889 300.755 29.883C300.131 29.8769 299.403 29.5144 298.954 29.2003C298.675 29.0069 298.803 28.6142 298.803 28.3061C298.79 23.1644 298.79 18.0228 298.797 12.8873C298.797 12.5489 298.675 12.1502 298.942 11.8964C299.306 11.552 300.052 11.0747 300.531 11.111C301.156 11.1593 301.883 11.5943 302.187 11.9689C302.478 12.3254 302.302 12.8087 302.302 13.2377C302.308 15.6846 302.302 18.1316 302.302 20.5785Z" fill="#414141"/>
<path d="M149.404 20.5302C149.404 17.9926 149.404 15.449 149.404 12.9114C149.404 12.6033 149.241 12.2287 149.489 12.0112C149.89 11.6668 150.557 11.2258 151.145 11.2137C151.654 11.2016 152.334 11.6728 152.71 12.0112C152.958 12.2347 152.843 12.6033 152.843 12.9114C152.867 17.9624 152.885 23.0074 152.904 28.0583C152.91 29.3876 152.406 29.9011 151.066 29.8226C149.095 29.7017 149.429 28.8075 149.423 28.0644C149.411 25.557 149.417 23.0497 149.417 20.5362C149.411 20.5302 149.404 20.5302 149.404 20.5302Z" fill="#414141"/>
<path d="M112.963 20.5242C112.963 23.3095 112.957 26.0887 112.975 28.874C112.981 29.5447 112.793 30.173 111.399 30.2093C109.895 30.2455 109.616 29.6051 109.616 28.8921C109.616 23.3578 109.603 17.8174 109.597 12.2831C109.597 12.0716 109.488 11.7937 109.676 11.6547C110.125 11.3285 110.719 10.8391 111.259 10.8391C111.811 10.8391 112.678 11.2922 112.842 11.6366C113.115 12.2045 112.957 12.845 112.957 13.4612C112.963 15.8115 112.957 18.1678 112.963 20.5242Z" fill="#414141"/>
<path d="M182.741 20.4758C182.741 22.9228 182.753 25.3697 182.723 27.8167C182.717 28.1671 182.674 28.584 182.347 28.8559C182.037 29.1096 181.304 29.3755 180.825 29.3453C180.327 29.309 179.806 28.9525 179.484 28.6686C179.254 28.4571 179.29 28.1369 179.29 27.865C179.266 23.0617 179.254 18.2645 179.242 13.4612C179.242 13.2498 179.248 13.0323 179.278 12.8208C179.381 12.1924 179.788 11.6124 181.049 11.6426C182.256 11.6668 182.723 12.2106 182.723 12.8691C182.723 13.4492 182.711 14.0292 182.711 14.6092C182.711 16.5667 182.711 18.5243 182.711 20.4819C182.729 20.4758 182.735 20.4758 182.741 20.4758Z" fill="#414141"/>
<path d="M122.939 20.5725C122.939 22.9892 122.933 25.412 122.945 27.8288C122.951 28.5054 122.739 29.0975 121.29 29.1096C119.889 29.1157 119.519 28.5719 119.513 27.8771C119.495 23.0376 119.464 18.198 119.44 13.3585C119.44 13.2377 119.464 13.1168 119.476 12.99C119.543 12.3072 120.119 11.8601 121.362 11.8843C122.587 11.9085 122.939 12.422 122.939 13.0383C122.945 14.724 122.933 16.4097 122.933 18.0893C122.933 18.917 122.939 19.7448 122.939 20.5725Z" fill="#414141"/>
<path d="M313.746 20.4517C313.746 18.3068 313.734 16.168 313.752 14.0231C313.758 13.0927 314.37 12.6637 315.729 12.706C317.154 12.7483 317.591 13.3102 317.591 14.0352C317.591 18.3491 317.584 22.669 317.603 26.9829C317.609 27.7381 317.105 28.294 315.723 28.2879C314.34 28.2819 313.709 27.8288 313.746 26.9648C313.843 24.7897 313.776 22.6207 313.776 20.4456C313.764 20.4517 313.752 20.4517 313.746 20.4517Z" fill="#414141"/>
<path d="M239.019 20.5242C239.019 17.9201 239.037 15.3161 239.007 12.7181C239.001 12.0233 239.268 11.4856 240.669 11.4191C241.833 11.3647 242.53 11.8481 242.536 12.7181C242.555 17.8657 242.585 23.0074 242.518 28.149C242.512 28.6202 242.027 29.2728 241.384 29.5205C240.274 29.9434 239.055 29.2728 239.049 28.3302C239.043 25.7262 239.049 23.1222 239.049 20.5242C239.037 20.5242 239.031 20.5242 239.019 20.5242Z" fill="#414141"/>
<path d="M162.862 20.5665C162.862 22.8321 162.862 25.1039 162.862 27.3696C162.862 27.7381 163.044 28.1792 162.752 28.4511C162.37 28.8075 161.624 29.2123 160.982 29.2486C160.496 29.2728 159.805 28.7834 159.441 28.439C159.199 28.2094 159.375 27.8408 159.368 27.5327C159.35 22.7536 159.338 17.9745 159.32 13.1894C159.32 13.0383 159.308 12.8812 159.326 12.7302C159.411 12.1018 159.932 11.6306 161.085 11.6426C162.207 11.6547 162.807 12.1139 162.837 12.7483C162.874 13.6062 162.831 14.4642 162.831 15.3221C162.831 17.0682 162.831 18.8143 162.831 20.5604C162.837 20.5665 162.849 20.5665 162.862 20.5665Z" fill="#414141"/>
<path d="M217.617 20.5544C217.617 22.8201 217.599 25.0858 217.624 27.3575C217.63 28.0825 217.326 28.6988 215.841 28.6807C214.476 28.6625 214.124 28.0644 214.124 27.3877C214.112 22.8563 214.106 18.3189 214.1 13.7875C214.1 13.6667 214.112 13.5398 214.136 13.419C214.27 12.7664 214.785 12.2831 216.053 12.3254C217.266 12.3616 217.63 12.851 217.63 13.4794C217.611 15.8357 217.617 18.192 217.617 20.5544Z" fill="#414141"/>
<path d="M417.096 20.5242C417.096 22.7597 417.09 24.9951 417.102 27.2306C417.108 27.8892 416.842 28.4329 415.459 28.3967C414.222 28.3665 413.694 27.9133 413.694 27.2306C413.688 22.7899 413.682 18.3491 413.646 13.9083C413.639 13.1471 414.131 12.6093 415.532 12.6093C417.005 12.6033 417.145 13.2619 417.145 13.9144C417.145 16.1197 417.145 18.3249 417.145 20.5302C417.127 20.5242 417.108 20.5242 417.096 20.5242Z" fill="#414141"/>
<path d="M192.656 20.5846C192.656 22.7899 192.632 24.9891 192.675 27.1944C192.687 27.8831 192.305 28.3605 191.019 28.3786C189.709 28.4027 189.278 27.8831 189.272 27.2246C189.248 22.7536 189.23 18.2887 189.206 13.8177C189.2 13.141 189.636 12.6577 190.928 12.6396C192.365 12.6214 192.687 13.1833 192.681 13.8721C192.675 16.1076 192.681 18.3431 192.681 20.5725C192.675 20.5846 192.668 20.5846 192.656 20.5846Z" fill="#414141"/>
<path d="M347.397 20.6148C347.397 22.7597 347.361 24.8985 347.416 27.0433C347.434 27.7804 346.955 28.2819 345.663 28.2879C344.42 28.294 343.965 27.7683 343.959 27.0917C343.947 22.7174 343.935 18.337 343.904 13.9627C343.898 13.2437 344.377 12.7302 345.718 12.7302C347.119 12.7362 347.416 13.3102 347.41 14.005C347.385 16.2103 347.404 18.4095 347.404 20.6148C347.404 20.6148 347.404 20.6148 347.397 20.6148Z" fill="#414141"/>
<path d="M244.065 20.5242C244.065 18.3491 244.089 16.1801 244.053 14.005C244.04 13.3162 244.459 12.8148 245.69 12.7906C247.006 12.7664 247.534 13.286 247.534 14.005C247.527 18.3491 247.534 22.6992 247.54 27.0433C247.54 27.7321 246.97 28.2034 245.769 28.2154C244.519 28.2275 244.059 27.7381 244.071 27.0433C244.101 24.8682 244.083 22.6992 244.083 20.5242C244.071 20.5242 244.065 20.5242 244.065 20.5242Z" fill="#414141"/>
<path d="M157.822 20.5121C157.822 22.6207 157.804 24.7353 157.834 26.8439C157.846 27.5569 157.688 28.149 156.106 28.1611C154.571 28.1731 154.426 27.581 154.426 26.9164C154.426 22.663 154.414 18.4156 154.414 14.1621C154.414 14.0715 154.432 13.9808 154.426 13.8842C154.42 13.2256 154.959 12.8087 156.142 12.8148C157.343 12.8148 157.816 13.2558 157.816 13.9023C157.81 16.1076 157.816 18.3068 157.816 20.5121H157.822Z" fill="#414141"/>
<path d="M83.1561 20.5483C83.1561 22.6328 83.144 24.7112 83.1622 26.7956C83.1683 27.4904 82.9014 28.0221 81.4217 28.0161C79.9662 28.01 79.6691 27.4723 79.6691 26.7835C79.6691 22.6207 79.6691 18.4518 79.6509 14.289C79.6509 13.5639 79.9905 12.9416 81.4278 12.9296C82.9439 12.9175 83.138 13.6062 83.1319 14.3011C83.1319 16.3855 83.1319 18.4639 83.1319 20.5483C83.144 20.5483 83.1501 20.5483 83.1561 20.5483Z" fill="#E6E6E6"/>
<path d="M88.105 20.5181C88.105 22.7536 88.0808 24.9891 88.1172 27.2246C88.1293 27.9436 87.723 28.4813 86.3949 28.4813C85.0546 28.4813 84.6665 27.9194 84.6665 27.2125C84.6665 22.7717 84.6422 18.331 84.624 13.8902C84.624 13.1894 84.8848 12.5308 86.3888 12.5429C87.8503 12.555 88.1172 13.1773 88.1111 13.9023C88.0747 16.1076 88.099 18.3128 88.099 20.5181C88.099 20.5181 88.099 20.5181 88.105 20.5181Z" fill="#414141"/>
<path d="M18.4544 20.5181C18.4544 22.5361 18.4544 24.5541 18.4544 26.5721C18.4544 26.85 18.4544 27.1219 18.4241 27.3998C18.3634 28.01 17.7933 28.3967 16.7199 28.3967C15.5556 28.3967 14.9855 27.9798 14.9855 27.3273C14.9794 25.7987 15.0098 24.2701 15.0037 22.7415C14.9976 19.8052 14.9855 16.8688 14.9491 13.9325C14.937 13.2437 15.2099 12.6456 16.5744 12.6214C18.0177 12.5912 18.4241 13.1652 18.4119 13.9144C18.3816 16.1136 18.3998 18.3189 18.3998 20.5181C18.418 20.5181 18.4362 20.5181 18.4544 20.5181Z" fill="#E6E6E6"/>
<path d="M373.881 20.4456C373.881 18.4578 373.881 16.4701 373.881 14.4823C373.881 14.2044 373.717 13.86 373.948 13.6727C374.421 13.2921 375.106 13.0021 375.707 12.6758C376.222 13.0141 377.132 13.3344 377.18 13.6908C377.35 15.0623 377.235 16.4399 377.247 17.8174C377.277 20.6933 377.32 23.5632 377.356 26.4391C377.362 26.6808 377.374 26.9285 377.344 27.1702C377.259 27.8288 376.731 28.3302 375.488 28.294C374.342 28.2577 373.881 27.7865 373.887 27.14C373.899 24.9105 373.893 22.6751 373.893 20.4456C373.881 20.4456 373.881 20.4456 373.881 20.4456Z" fill="#414141"/>
<path d="M142.934 20.5846C142.934 22.5421 142.928 24.4997 142.934 26.4573C142.934 27.0917 142.54 27.5448 141.327 27.5992C139.726 27.6717 139.459 27.0494 139.447 26.3546C139.416 24.7051 139.428 23.0497 139.422 21.4002C139.422 19.201 139.422 16.9957 139.428 14.7965C139.428 14.1138 139.622 13.4673 141.126 13.3948C142.267 13.3344 142.964 13.8963 142.964 14.8086C142.97 16.7359 142.964 18.6633 142.964 20.5906C142.964 20.5846 142.952 20.5846 142.934 20.5846Z" fill="#414141"/>
<path d="M237.546 20.5785C237.546 22.3851 237.491 24.1855 237.57 25.992C237.6 26.7714 237.03 27.3454 235.787 27.3454C234.629 27.3454 234.04 26.7775 234.046 26.0464C234.065 22.379 234.053 18.7056 234.016 15.0382C234.01 14.2829 234.495 13.6787 235.823 13.6969C237.121 13.715 237.588 14.3373 237.57 15.0805C237.527 16.9172 237.558 18.7479 237.558 20.5846C237.552 20.5785 237.546 20.5785 237.546 20.5785Z" fill="#414141"/>
<path d="M23.3846 20.6148C23.3846 22.3609 23.3785 24.1009 23.3846 25.847C23.3907 26.5418 23.1845 27.2185 21.7048 27.2367C20.0855 27.2548 19.9279 26.5418 19.9279 25.8168C19.9279 22.3307 19.9157 18.8445 19.9097 15.3523C19.9097 15.1711 19.9279 14.9838 19.94 14.8025C19.9824 14.1983 20.4858 13.7694 21.5835 13.7815C22.6872 13.7935 23.3725 14.1802 23.3725 14.8388C23.3785 16.6151 23.3482 18.3853 23.33 20.1616C23.33 20.3127 23.33 20.4698 23.33 20.6208C23.3543 20.6148 23.3725 20.6148 23.3846 20.6148Z" fill="#E6E6E6"/>
<path d="M407.187 20.5665C407.187 22.3428 407.253 24.1191 407.138 25.8893C407.114 26.3002 406.647 26.8741 406.065 27.0675C405.125 27.3817 404.167 27.1521 403.888 26.4573C403.766 26.1612 403.742 25.8531 403.736 25.5449C403.712 22.3005 403.7 19.062 403.688 15.8176C403.688 15.5094 403.724 15.2073 403.754 14.8992C403.815 14.2588 404.336 13.8056 405.519 13.8419C406.665 13.8721 407.181 14.3252 407.181 14.9657C407.187 16.8326 407.187 18.6995 407.187 20.5665Z" fill="#414141"/>
<path d="M337.439 20.5725C337.439 22.2884 337.433 24.0043 337.439 25.7141C337.439 26.415 337.251 27.0614 335.699 27.0554C334.116 27.0494 334.007 26.3425 334.007 25.6779C333.983 22.2461 333.964 18.8204 334.019 15.3886C334.025 14.9657 334.316 14.4823 334.753 14.15C334.989 13.9687 336.026 13.8962 336.348 14.0352C336.863 14.2588 337.373 14.6998 337.391 15.0563C337.494 16.893 337.439 18.7297 337.439 20.5665C337.433 20.5725 337.439 20.5725 337.439 20.5725Z" fill="#414141"/>
<path d="M382.311 20.5181C382.311 22.228 382.298 23.9438 382.317 25.6537C382.323 26.3848 381.953 26.9889 380.485 26.9527C379.102 26.9225 378.86 26.282 378.86 25.6174C378.866 22.2219 378.866 18.8264 378.872 15.4309C378.872 14.7482 379.036 14.1017 380.54 14.0171C381.643 13.9567 382.311 14.5306 382.311 15.4611C382.311 17.1407 382.311 18.8264 382.311 20.506C382.317 20.5181 382.311 20.5181 382.311 20.5181Z" fill="#414141"/>
<path d="M367.374 20.5181C367.374 22.234 367.349 23.9438 367.386 25.6597C367.398 26.3848 366.937 26.8983 365.621 26.9225C364.196 26.9466 363.893 26.3485 363.893 25.6718C363.893 22.2763 363.893 18.8808 363.899 15.4853C363.899 14.8086 364.026 14.144 365.536 14.0654C366.658 14.005 367.416 14.6454 367.416 15.5698C367.416 17.2193 367.416 18.8747 367.416 20.5242C367.398 20.5181 367.386 20.5181 367.374 20.5181Z" fill="#414141"/>
<path d="M307.305 20.5423C307.305 22.1313 307.311 23.7263 307.305 25.3153C307.305 26.0162 307.026 26.6748 305.528 26.6566C304.097 26.6385 303.788 26.0404 303.8 25.3033C303.836 22.1857 303.806 19.062 303.806 15.9444C303.806 15.7934 303.818 15.6363 303.818 15.4853C303.83 14.8025 304.358 14.3494 305.631 14.3615C306.886 14.3736 307.226 14.8992 307.232 15.5034C307.25 17.183 307.238 18.8687 307.238 20.5483C307.256 20.5423 307.281 20.5423 307.305 20.5423Z" fill="#414141"/>
<path d="M13.4207 20.4637C13.4207 22.0225 13.4025 23.5813 13.4268 25.1462C13.4389 25.8833 13.0629 26.4573 11.5953 26.4512C10.1823 26.4452 9.90334 25.8591 9.9094 25.1764C9.91547 22.089 9.92153 18.9956 9.89121 15.9082C9.88514 15.1832 10.1702 14.5608 11.6256 14.5548C13.0629 14.5427 13.445 15.1409 13.4329 15.878C13.3965 17.4005 13.4207 18.9351 13.4207 20.4637Z" fill="#E6E6E6"/>
<path d="M446.994 20.4879C446.994 22.1132 446.988 23.7324 447 25.3576C447.006 26.0283 446.758 26.6385 445.339 26.6446C443.968 26.6506 443.586 26.1008 443.592 25.3939C443.604 22.1796 443.58 18.9654 443.574 15.7511C443.574 15.6303 443.586 15.5034 443.61 15.3826C443.707 14.7965 444.144 14.3615 445.278 14.3615C446.491 14.3615 446.988 14.8025 446.988 15.4369C447 17.1226 446.994 18.8022 446.994 20.4879Z" fill="#414141"/>
<path d="M254.005 20.5242C254.005 18.9654 254.035 17.4005 253.993 15.8417C253.974 15.0684 254.526 14.5488 255.897 14.5669C257.207 14.585 257.437 15.2013 257.437 15.8296C257.437 18.9533 257.437 22.0709 257.449 25.1945C257.449 25.8954 257.061 26.4633 255.672 26.4271C254.435 26.3968 254.017 25.8833 254.029 25.2066C254.059 23.6478 254.041 22.083 254.041 20.5242C254.029 20.5242 254.017 20.5242 254.005 20.5242Z" fill="#414141"/>
<path d="M29.8801 20.5242C29.8801 19.1829 29.9044 17.8355 29.874 16.4942C29.8558 15.7994 30.3349 15.3282 31.5903 15.3342C32.8214 15.3463 33.3672 15.8417 33.3732 16.5003C33.3914 19.1889 33.3914 21.8775 33.3793 24.5662C33.3793 25.2731 32.5849 25.6718 31.4811 25.6779C30.3471 25.6839 29.8619 25.2066 29.874 24.5541C29.8983 23.2128 29.8801 21.8715 29.8801 20.5242Z" fill="#E6E6E6"/>
<path d="M222.609 20.4275C222.609 21.805 222.603 23.1826 222.609 24.5601C222.615 25.2791 222.287 25.9135 220.795 25.8712C219.449 25.8349 219.134 25.2428 219.14 24.5541C219.158 21.8594 219.146 19.1647 219.14 16.464C219.14 16.3432 219.061 16.174 219.17 16.1015C219.716 15.7511 220.231 15.2194 220.905 15.1348C221.917 15.008 222.548 15.4853 222.554 16.1015C222.566 17.5395 222.56 18.9835 222.56 20.4215C222.578 20.4275 222.591 20.4275 222.609 20.4275Z" fill="#414141"/>
<path d="M312.223 20.5181C312.223 21.8292 312.199 23.1463 312.236 24.4574C312.254 25.1462 311.726 25.6477 310.55 25.6477C309.379 25.6477 308.839 25.1583 308.845 24.4635C308.87 21.8655 308.852 19.2735 308.839 16.6755C308.833 15.9928 309.167 15.3765 310.531 15.3946C311.938 15.4128 312.278 16.0351 312.248 16.7601C312.199 18.0108 312.236 19.2614 312.236 20.5181C312.229 20.5181 312.229 20.5181 312.223 20.5181Z" fill="#414141"/>
<path d="M229.073 20.5483C229.073 19.3279 229.073 18.1014 229.073 16.8809C229.073 16.2042 229.346 15.6182 230.808 15.6424C232.172 15.6605 232.585 16.168 232.579 16.8809C232.56 19.201 232.578 21.5271 232.585 23.8472C232.585 23.9982 232.548 24.1553 232.554 24.3064C232.579 24.9831 231.936 25.3637 230.826 25.3758C229.649 25.3939 229.14 24.9589 229.146 24.3003C229.158 23.0497 229.152 21.793 229.152 20.5423C229.122 20.5483 229.098 20.5483 229.073 20.5483Z" fill="#414141"/>
<path d="M252.476 20.5242C252.476 21.5332 252.488 22.5482 252.47 23.5572C252.458 24.1734 252.052 24.6326 250.827 24.681C249.529 24.7293 249.086 24.2218 249.074 23.6357C249.019 21.5513 249.038 19.4729 249.056 17.3884C249.062 16.742 249.656 16.2949 250.79 16.2888C251.961 16.2828 252.452 16.7722 252.458 17.4005C252.47 18.4397 252.464 19.485 252.464 20.5242C252.47 20.5242 252.47 20.5242 252.476 20.5242Z" fill="#414141"/>
<path d="M8.37538 20.5242C8.37538 21.5936 8.36325 22.669 8.38144 23.7384C8.38751 24.403 7.78106 24.8139 6.67733 24.832C5.49476 24.8501 4.97321 24.3607 4.95502 23.7384C4.91257 21.6238 4.88831 19.5091 4.9065 17.4005C4.91257 16.7843 5.24005 16.1861 6.5803 16.1861C7.90235 16.1861 8.44209 16.6634 8.41783 17.4005C8.38751 18.4397 8.41177 19.485 8.41177 20.5242C8.39964 20.5242 8.38751 20.5242 8.37538 20.5242Z" fill="#E6E6E6"/>
<path d="M227.594 20.4879C227.594 21.4063 227.606 22.3186 227.588 23.2309C227.576 23.8895 227.078 24.4151 225.841 24.403C224.653 24.3909 224.089 23.9438 224.107 23.2369C224.143 21.4365 224.131 19.636 224.107 17.8355C224.101 17.1709 224.507 16.6272 225.744 16.609C227.042 16.5909 227.588 17.1166 227.588 17.8295C227.588 18.7176 227.594 19.6058 227.594 20.4879Z" fill="#414141"/>
<path d="M28.3154 20.5362C28.3154 21.3942 28.2912 22.2461 28.3215 23.104C28.3518 23.829 27.6362 24.2278 26.5082 24.2399C25.4045 24.252 24.9921 23.7445 24.98 23.1644C24.9496 21.4546 24.9193 19.7448 24.9314 18.0349C24.9375 17.3824 25.2165 16.7238 26.6416 16.7661C27.9152 16.8084 28.3761 17.3522 28.3336 18.0651C28.279 18.8868 28.3215 19.7145 28.3215 20.5423C28.3154 20.5362 28.3154 20.5362 28.3154 20.5362Z" fill="#E6E6E6"/>
<path d="M3.40265 20.5302C3.40265 21.1706 3.39053 21.8111 3.40872 22.4515C3.42691 23.1101 2.89324 23.5149 1.7228 23.527C0.594805 23.539 0.0975185 23.1101 0.0732606 22.524C0.0186804 21.1827 -0.00557746 19.8414 0.0186804 18.4941C0.0308094 17.9141 0.540225 17.4791 1.66215 17.473C2.83259 17.467 3.41478 17.8597 3.43904 18.5122C3.45724 19.1829 3.44511 19.8535 3.44511 20.5242C3.42085 20.5302 3.40872 20.5302 3.40265 20.5302Z" fill="#E6E6E6"/>
</g>
<defs>
<clipPath id="clip0_222_7593">
<rect width="447" height="41" fill="white"/>
</clipPath>
</defs>
</svg>
