<svg width="9" height="13" viewBox="0 0 9 13" fill="none" xmlns="http://www.w3.org/2000/svg">
<path d="M5.59788 12.2906L1.14424 7.75727V6.54425H3.43747C4.03955 6.54425 4.5767 6.3465 5.04893 5.95102C5.52115 5.55553 5.78087 5.0538 5.82809 4.44581H0.719238V3.25935H5.64216C5.44146 2.81664 5.14485 2.47871 4.75231 2.24555C4.35978 2.01239 3.9215 1.89581 3.43747 1.89581H0.719238V0.709351H8.2807V1.89581H6.16455C6.33573 2.11421 6.48625 2.32966 6.61611 2.54216C6.74597 2.75466 6.84042 2.99373 6.89945 3.25935H8.2807V4.44581H7.0057C6.94667 5.40206 6.57332 6.1886 5.88564 6.80544C5.19797 7.42228 4.38191 7.73071 3.43747 7.73071H2.78226L7.26247 12.2906H5.59788Z" fill="#D8EB55"/>
</svg>
