<svg width="12" height="13" viewBox="0 0 12 13" fill="none" xmlns="http://www.w3.org/2000/svg">
<path d="M1.75034 12.5833C1.375 12.5833 1.05887 12.4538 0.801921 12.1948C0.544976 11.9357 0.416504 11.6187 0.416504 11.2436V10H1.49982V11.2436C1.49982 11.3077 1.52652 11.3664 1.57994 11.4199C1.63337 11.4733 1.69214 11.5 1.75625 11.5H10.2434C10.3075 11.5 10.3663 11.4733 10.4197 11.4199C10.4731 11.3664 10.4998 11.3077 10.4998 11.2436V10H11.5831V11.2436C11.5831 11.6187 11.4535 11.9357 11.1943 12.1948C10.9351 12.4538 10.6179 12.5833 10.2425 12.5833H1.75034ZM5.99982 9.67946L2.60884 6.28848L3.38286 5.5305L5.45817 7.60581V0.272461H6.54146V7.60581L8.61678 5.5305L9.3908 6.28848L5.99982 9.67946Z" fill="#E6E6E6"/>
</svg>
