<svg width="20" height="20" viewBox="0 0 20 20" fill="none" xmlns="http://www.w3.org/2000/svg">
<mask id="mask0_222_8364" style="mask-type:alpha" maskUnits="userSpaceOnUse" x="0" y="0" width="20" height="20">
<rect width="20" height="20" fill="#D9D9D9"/>
</mask>
<g mask="url(#mask0_222_8364)">
<path d="M10 16.2539L9.31413 15.6297C7.96606 14.4209 6.85367 13.3895 5.97696 12.5356C5.10024 11.6817 4.41177 10.9306 3.91157 10.2824C3.41136 9.63423 3.0652 9.04651 2.87311 8.51927C2.68101 7.99203 2.58496 7.45649 2.58496 6.91262C2.58496 5.83293 2.9586 4.91945 3.70588 4.17219C4.45316 3.42491 5.36663 3.05127 6.44632 3.05127C7.12327 3.05127 7.77448 3.21446 8.39994 3.54085C9.02541 3.86724 9.55877 4.34001 10 4.95914C10.4567 4.34001 10.9935 3.86724 11.6102 3.54085C12.2269 3.21446 12.8747 3.05127 13.5537 3.05127C14.6334 3.05127 15.5468 3.42476 16.2941 4.17173C17.0414 4.91871 17.415 5.83183 17.415 6.91108C17.415 7.4559 17.3225 7.985 17.1373 8.49837C16.9522 9.01176 16.6096 9.58894 16.1095 10.2299C15.6095 10.8709 14.9184 11.6255 14.0363 12.4939C13.1541 13.3623 12.0234 14.4215 10.6442 15.6714L10 16.2539ZM10 14.9118C11.2683 13.7645 12.3136 12.7891 13.1358 11.9857C13.9581 11.1822 14.6131 10.481 15.1009 9.88219C15.5887 9.28335 15.9298 8.7511 16.1242 8.28544C16.3187 7.81977 16.4159 7.36235 16.4159 6.91319C16.4159 6.10031 16.1412 5.41996 15.5919 4.87214C15.0426 4.32434 14.3649 4.05044 13.5588 4.05044C13.0725 4.05044 12.6179 4.1538 12.1951 4.36054C11.7723 4.56726 11.3416 4.90701 10.903 5.37977L10.1739 6.23394H9.82613L9.09696 5.37977C8.65304 4.90167 8.21407 4.56059 7.78004 4.35652C7.34602 4.15246 6.89973 4.05044 6.44119 4.05044C5.64045 4.05044 4.96409 4.32434 4.41211 4.87214C3.86012 5.41996 3.58413 6.10045 3.58413 6.9136C3.58413 7.36294 3.67459 7.8101 3.85552 8.2551C4.03645 8.7001 4.36351 9.21821 4.83669 9.80944C5.30988 10.4007 5.96101 11.1011 6.79007 11.9106C7.61912 12.7202 8.6891 13.7206 10 14.9118Z" fill="#E6E6E6"/>
</g>
</svg>
