<svg width="12" height="4" viewBox="0 0 12 4" fill="none" xmlns="http://www.w3.org/2000/svg">
<path d="M1.68776 3.08337C1.38864 3.08337 1.13404 2.97687 0.92397 2.76385C0.713914 2.55084 0.608887 2.29477 0.608887 1.99564C0.608887 1.69652 0.715394 1.44192 0.928408 1.23185C1.14142 1.02178 1.39749 0.916748 1.69662 0.916748C1.99574 0.916748 2.25033 1.02326 2.46039 1.23627C2.67046 1.44928 2.77549 1.70535 2.77549 2.00448C2.77549 2.3036 2.66898 2.5582 2.45597 2.76827C2.24296 2.97834 1.98689 3.08337 1.68776 3.08337ZM5.99545 3.08337C5.69632 3.08337 5.44173 2.97687 5.23166 2.76385C5.02159 2.55084 4.91655 2.29477 4.91655 1.99564C4.91655 1.69652 5.02306 1.44192 5.23607 1.23185C5.44909 1.02178 5.70516 0.916748 6.00428 0.916748C6.30341 0.916748 6.55801 1.02326 6.76807 1.23627C6.97814 1.44928 7.08318 1.70535 7.08318 2.00448C7.08318 2.3036 6.97667 2.5582 6.76366 2.76827C6.55064 2.97834 6.29457 3.08337 5.99545 3.08337ZM10.3031 3.08337C10.004 3.08337 9.7494 2.97687 9.53935 2.76385C9.32928 2.55084 9.22424 2.29477 9.22424 1.99564C9.22424 1.69652 9.33075 1.44192 9.54376 1.23185C9.75678 1.02178 10.0128 0.916748 10.312 0.916748C10.6111 0.916748 10.8657 1.02326 11.0758 1.23627C11.2858 1.44928 11.3908 1.70535 11.3908 2.00448C11.3908 2.3036 11.2843 2.5582 11.0713 2.76827C10.8583 2.97834 10.6022 3.08337 10.3031 3.08337Z" fill="#E6E6E6"/>
</svg>
