<svg width="4" height="16" viewBox="0 0 4 16" fill="none" xmlns="http://www.w3.org/2000/svg">
<path d="M2.00003 0.730935C2.41251 0.730935 2.76563 0.877803 3.05938 1.17154C3.35313 1.46529 3.5 1.8184 3.5 2.23089C3.5 2.64339 3.35313 2.9965 3.05938 3.29024C2.76563 3.58399 2.41251 3.73086 2.00003 3.73086C1.58754 3.73086 1.23443 3.58399 0.940676 3.29024C0.646926 2.9965 0.500051 2.64339 0.500051 2.23089C0.500051 1.8184 0.646926 1.46529 0.940676 1.17154C1.23443 0.877803 1.58754 0.730935 2.00003 0.730935ZM2.00003 6.50014C2.41251 6.50014 2.76563 6.64701 3.05938 6.94076C3.35313 7.23451 3.5 7.58763 3.5 8.00011C3.5 8.4126 3.35313 8.76571 3.05938 9.05946C2.76563 9.35321 2.41251 9.50009 2.00003 9.50009C1.58754 9.50009 1.23443 9.35321 0.940675 9.05946C0.646925 8.76571 0.50005 8.4126 0.50005 8.00011C0.50005 7.58763 0.646925 7.23451 0.940675 6.94076C1.23443 6.64701 1.58754 6.50014 2.00003 6.50014ZM2.00003 12.2694C2.41251 12.2694 2.76563 12.4162 3.05938 12.71C3.35313 13.0037 3.5 13.3568 3.5 13.7693C3.5 14.1818 3.35313 14.5349 3.05938 14.8287C2.76563 15.1224 2.41251 15.2693 2.00003 15.2693C1.58754 15.2693 1.23442 15.1224 0.940675 14.8287C0.646925 14.5349 0.50005 14.1818 0.50005 13.7693C0.50005 13.3568 0.646925 13.0037 0.940675 12.71C1.23442 12.4162 1.58754 12.2694 2.00003 12.2694Z" fill="#E6E6E6"/>
</svg>
