<svg width="38" height="38" viewBox="0 0 38 38" fill="none" xmlns="http://www.w3.org/2000/svg">
<path d="M15.2067 25.7186L25.7188 18.9998L15.2067 12.2811V25.7186ZM19.0147 37.038C16.5198 37.038 14.1776 36.5631 11.9881 35.6132C9.79867 34.6634 7.88686 33.3726 6.2527 31.7409C4.61849 30.1093 3.32815 28.2034 2.38165 26.0231C1.43516 23.8428 0.961914 21.5066 0.961914 19.0145C0.961914 16.5196 1.43684 14.1716 2.38671 11.9705C3.33657 9.76948 4.62733 7.85478 6.259 6.22641C7.89063 4.59801 9.79658 3.31344 11.9769 2.37271C14.1571 1.43202 16.4933 0.96167 18.9855 0.96167C21.4804 0.96167 23.8284 1.43507 26.0296 2.38188C28.2308 3.32872 30.1455 4.6137 31.7737 6.23683C33.402 7.85995 34.6865 9.76744 35.6272 11.9593C36.5679 14.1511 37.0383 16.4931 37.0383 18.9852C37.0383 21.4801 36.5662 23.8223 35.6222 26.0118C34.6781 28.2013 33.3931 30.1131 31.7672 31.7472C30.1414 33.3814 28.2325 34.6718 26.0407 35.6183C23.8488 36.5648 21.5068 37.038 19.0147 37.038Z" fill="#E6E6E6"/>
</svg>
