<svg width="11" height="15" viewBox="0 0 11 15" fill="none" xmlns="http://www.w3.org/2000/svg">
<path d="M1.46795 14.2292C1.11015 14.2292 0.807292 14.1052 0.559375 13.8573C0.311458 13.6094 0.1875 13.3065 0.1875 12.9487V4.88466C0.1875 4.52686 0.311458 4.224 0.559375 3.97608C0.807292 3.72817 1.11015 3.60421 1.46795 3.60421H2.84375V3.42712C2.84375 2.69336 3.10302 2.06721 3.62155 1.54868C4.14008 1.03014 4.76622 0.770874 5.49998 0.770874C6.23374 0.770874 6.85989 1.03014 7.37841 1.54868C7.89695 2.06721 8.15621 2.69336 8.15621 3.42712V3.60421H9.53201C9.88981 3.60421 10.1927 3.72817 10.4406 3.97608C10.6885 4.224 10.8125 4.52686 10.8125 4.88466V12.9487C10.8125 13.3065 10.6885 13.6094 10.4406 13.8573C10.1927 14.1052 9.88981 14.2292 9.53201 14.2292H1.46795ZM1.46795 13.1667H9.53201C9.5865 13.1667 9.63646 13.144 9.68187 13.0986C9.72728 13.0532 9.74998 13.0032 9.74998 12.9487V4.88466C9.74998 4.83017 9.72728 4.78021 9.68187 4.7348C9.63646 4.68939 9.5865 4.66669 9.53201 4.66669H8.15621V6.26046C8.15621 6.4112 8.10536 6.53743 8.00366 6.63913C7.90195 6.74084 7.77573 6.79169 7.62498 6.79169C7.47424 6.79169 7.34801 6.74084 7.24631 6.63913C7.1446 6.53743 7.09375 6.4112 7.09375 6.26046V4.66669H3.90621V6.26046C3.90621 6.4112 3.85536 6.53743 3.75366 6.63913C3.65195 6.74084 3.52573 6.79169 3.37498 6.79169C3.22424 6.79169 3.09801 6.74084 2.99631 6.63913C2.8946 6.53743 2.84375 6.4112 2.84375 6.26046V4.66669H1.46795C1.41346 4.66669 1.3635 4.68939 1.31809 4.7348C1.27268 4.78021 1.24998 4.83017 1.24998 4.88466V12.9487C1.24998 13.0032 1.27268 13.0532 1.31809 13.0986C1.3635 13.144 1.41346 13.1667 1.46795 13.1667ZM3.90621 3.60421H7.09375V3.42712C7.09375 2.98305 6.93914 2.6064 6.62992 2.29719C6.3207 1.98797 5.94406 1.83336 5.49998 1.83336C5.0559 1.83336 4.67926 1.98797 4.37005 2.29719C4.06083 2.6064 3.90621 2.98305 3.90621 3.42712V3.60421Z" fill="#D8EB55"/>
</svg>
