<svg width="19" height="19" viewBox="0 0 19 19" fill="none" xmlns="http://www.w3.org/2000/svg">
<path d="M17.1411 18.1458L11.1122 12.3125C10.5739 12.7292 9.95492 13.059 9.25514 13.3021C8.55536 13.5451 7.81072 13.6667 7.02123 13.6667C5.06543 13.6667 3.41037 13.0111 2.05603 11.7C0.701685 10.3889 0.0241552 8.7875 0.0234375 6.89583C0.0234375 5.00347 0.700967 3.40208 2.05603 2.09167C3.41109 0.78125 5.06615 0.125694 7.02123 0.125C8.97702 0.125 10.6321 0.780556 11.9864 2.09167C13.3408 3.40278 14.0183 5.00417 14.019 6.89583C14.019 7.65972 13.8934 8.38021 13.6422 9.05729C13.391 9.73438 13.0501 10.3333 12.6195 10.8542L18.6752 16.7135C18.8726 16.9045 18.9713 17.1389 18.9713 17.4167C18.9713 17.6944 18.8636 17.9375 18.6483 18.1458C18.4509 18.3368 18.1997 18.4323 17.8947 18.4323C17.5897 18.4323 17.3385 18.3368 17.1411 18.1458ZM7.02123 11.5833C8.36695 11.5833 9.511 11.1274 10.4534 10.2156C11.3957 9.30382 11.8666 8.19722 11.8658 6.89583C11.8658 5.59375 11.3947 4.48681 10.4523 3.575C9.50993 2.66319 8.36624 2.20764 7.02123 2.20833C5.6755 2.20833 4.53145 2.66424 3.58908 3.57604C2.64671 4.48785 2.17589 5.59444 2.1766 6.89583C2.1766 8.19792 2.64779 9.30486 3.59016 10.2167C4.53253 11.1285 5.67622 11.584 7.02123 11.5833Z" fill="#E6E6E6"/>
</svg>
